<svg width="289.1518" height="282.1024" viewBox="0 0 289.1518 282.1024" xmlns="http://www.w3.org/2000/svg" xmlns:xlink="http://www.w3.org/1999/xlink"><g fill="#d12e42" fill-rule="nonzero" stroke="#0000f0" stroke-width="1" stroke-linecap="butt" stroke-linejoin="round" stroke-miterlimit="10" stroke-dasharray="" stroke-dashoffset="0" font-family="none" font-weight="none" font-size="none" text-anchor="none" style="mix-blend-mode: normal"><line x1="144.8479" y1="0.1137" x2="208.7669" y2="281.7908"></line><line x1="30.0103" y1="57.5325" x2="208.7669" y2="281.7908"></line><line x1="43.5525" y1="65.1161" x2="43.5525" y2="65.1161"></line><line x1="30.0103" y1="57.5325" x2="288.9365" y2="181.0371"></line><line x1="288.9365" y1="181.0371" x2="0.2175" y2="181.0371"></line><line x1="0.2175" y1="180.4954" x2="258.0604" y2="55.9075"></line><line x1="258.0604" y1="55.9075" x2="79.3038" y2="281.7908"></line><line x1="79.3038" y1="280.7074" x2="144.8479" y2="0.1137"></line><line x1="65.7616" y1="84.6168" x2="242.8931" y2="169.6616"></line><line x1="242.8931" y1="169.6616" x2="43.5525" y2="169.6616"></line><line x1="44.0941" y1="169.6616" x2="220.684" y2="84.6168"></line><line x1="220.684" y1="85.1585" x2="99.8879" y2="240.0809"></line><line x1="99.8879" y1="240.0809" x2="142.7626" y2="49.9489"></line><line x1="144.3062" y1="49.9489" x2="188.1828" y2="240.0809"></line><line x1="188.1828" y1="239.5392" x2="65.7616" y2="84.6168"></line><line x1="142.7626" y1="49.9489" x2="144.3062" y2="49.9489"></line></g></svg>